# xmcd CD database file
#
# Track frame offsets:
#	150
#	12796
#	25279
#	38231
#	51847
#	68262
#	84735
#	101290
#	117643
#	137088
#	148380
#	160280
#	178018
#	196652
#	212057
#	220765
#	237218
#
# Disc length: 3277 seconds
#
# Revision: 0
# Processed by: cddbd v1.5.1PL0 Copyright (c) Steve Scherf et al.
# Submitted via: CDex 1.51
#
DISCID=ed0ccb11
DTITLE=Bill Ramsey and Jean-Louis Rassinfosse - Send In The Clowns
DYEAR=2005
DGENRE=Jazz
TTITLE0=Mean To Me
TTITLE1=Lonesome Road
TTITLE2=Send In The Clowns
TTITLE3=That Old Black Magic
TTITLE4=All Of You
TTITLE5=What's New
TTITLE6=I'll Wind
TTITLE7=Everything Happens To Me
TTITLE8=Dindi
TTITLE9=Just One Of Those Things
TTITLE10=Makin' Whopee
TTITLE11=My One And Only Love
TTITLE12=Softly As In A Morning SUnrise
TTITLE13=Stardust
TTITLE14=What YOu Gonna Do Now Girl
TTITLE15=Easy Livin'
TTITLE16=Jumpin' With Symphony Sid
EXTD=YEAR: 2005
EXTT0=
EXTT1=
EXTT2=
EXTT3=
EXTT4=
EXTT5=
EXTT6=
EXTT7=
EXTT8=
EXTT9=
EXTT10=
EXTT11=
EXTT12=
EXTT13=
EXTT14=
EXTT15=
EXTT16=
PLAYORDER=
